<?xml version="1.0" ?><svg id="Layer_1" style="enable-background:new 0 0 32 32;" version="1.1" viewBox="0 0 32 32" xml:space="preserve" xmlns="http://www.w3.org/2000/svg" xmlns:xlink="http://www.w3.org/1999/xlink"><style type="text/css">
	.st0{fill:#00BBB4;}
	.st1{fill:#1B75BC;}
	.st2{fill:#F15A29;}
</style><g><g><path class="st0" d="M28.6639404,5.4345875h-3.3197021l-6.7622681,6.9467163L16,7.8936329l-2.5819702,4.4876709    L6.6557617,5.4345875H3.3360596C2.0458374,5.4345875,1,6.4804859,1,7.770647v21.3934937    c0,1.2901001,1.0458374,2.3360596,2.3360596,2.3360596h25.3278809C29.9541626,31.5002003,31,30.4542408,31,29.1641407V7.770647    C31,6.4804859,29.9541626,5.4345875,28.6639404,5.4345875z M16,28.5002003c-0.5523071,0-1-0.4477539-1-1    c0-0.5523071,0.4476929-1,1-1s1,0.4476929,1,1C17,28.0524464,16.5523071,28.5002003,16,28.5002003z M16,24.1573048    c-0.5523071,0-1-0.4477539-1-1c0-0.5523071,0.4476929-1,1-1s1,0.4476929,1,1C17,23.7095509,16.5523071,24.1573048,16,24.1573048z     M16,19.8144093c-0.5523071,0-1-0.4477539-1-1c0-0.5523071,0.4476929-1,1-1s1,0.4476929,1,1    C17,19.3666553,16.5523071,19.8144093,16,19.8144093z M16,15.4715137c-0.5523071,0-1-0.4477539-1-1c0-0.5523071,0.4476929-1,1-1    s1,0.4476929,1,1C17,15.0237598,16.5523071,15.4715137,16,15.4715137z M27.9877319,19.0514088    c0,1.8843384-1.5275879,3.4118652-3.4119263,3.4118652c-1.8842773,0-3.4118652-1.5275269-3.4118652-3.4118652v-4.579895h6.8237915    V19.0514088z"/></g><g><path class="st1" d="M16,8.893755c-0.2285156,0-0.4570313-0.078125-0.6425781-0.2338867L7.7382813,2.2663136    c-0.3222656-0.2705078-0.440918-0.7128906-0.296875-1.1079102c0.1435547-0.3955078,0.519043-0.6582031,0.9394531-0.6582031    h15.2382813c0.4204102,0,0.7958984,0.2626953,0.9394531,0.6582031c0.144043,0.3950195,0.0253906,0.8374023-0.296875,1.1079102    l-7.6191406,6.3935547C16.4570313,8.81563,16.2285156,8.893755,16,8.893755z M11.128418,2.5002003L16,6.5880909    l4.871582-4.0878906H11.128418z"/></g><g><path class="st1" d="M13.4179688,13.3815479c-0.2680664,0-0.5273438-0.1079102-0.7167969-0.3022461l-6.762207-6.9467773    C5.6552734,5.8405323,5.5766602,5.405962,5.7397461,5.0334034l1.7250977-3.9345703    c0.1264648-0.2885742,0.3818359-0.5004883,0.6884766-0.5722656C8.4589844,0.4538136,8.7832031,0.5314503,9.0234375,0.734087    l7.6191406,6.3935547c0.371582,0.3115234,0.4658203,0.8447266,0.2241211,1.2646484l-2.5820313,4.487793    c-0.15625,0.2719727-0.4311523,0.4545898-0.7421875,0.4936523C13.5009766,13.3791065,13.4594727,13.3815479,13.4179688,13.3815479    z M7.8417969,5.2199268l5.3696289,5.515625L14.715332,8.121294L8.7607422,3.1242237L7.8417969,5.2199268z"/></g><g><path class="st1" d="M18.5820313,13.3815479c-0.0415039,0-0.0830078-0.0024414-0.1245117-0.0078125    c-0.3110352-0.0390625-0.5859375-0.2216797-0.7421875-0.4936523l-2.5820313-4.487793    c-0.2416992-0.4199219-0.1474609-0.953125,0.2241211-1.2646484l7.6191406-6.3935547    c0.2402344-0.2026367,0.5634766-0.2802734,0.8701172-0.2075195c0.3066406,0.0717773,0.5620117,0.2836914,0.6884766,0.5722656    l1.7250977,3.9345703c0.1630859,0.3725586,0.0844727,0.8071289-0.1992188,1.0991211l-6.762207,6.9467773    C19.109375,13.2736378,18.8500977,13.3815479,18.5820313,13.3815479z M17.284668,8.121294l1.5039063,2.6142578l5.3696289-5.515625    l-0.9189453-2.0957031L17.284668,8.121294z"/></g></g></svg>