<?xml version="1.0" ?><!DOCTYPE svg  PUBLIC '-//W3C//DTD SVG 1.1//EN'  'http://www.w3.org/Graphics/SVG/1.1/DTD/svg11.dtd'><svg enable-background="new 0 0 64 64" height="64px" id="Layer_1" version="1.1" viewBox="0 0 64 64" width="64px" xml:space="preserve" xmlns="http://www.w3.org/2000/svg" xmlns:xlink="http://www.w3.org/1999/xlink"><g><path d="M53.843,38.168c0,0,0.07-2.304-2.442-2.304h-5.211c-2.457,0-2.344-2.033-2.27-2.58l4.666-29.692V3.591   c0.563-3.594-2.932-3.554-2.932-3.554h-2.14h-1.908H16.946h-0.884h-2.233c-2.879,0-2.928,2.165-2.836,3.016l0.051,0.334   l0.001,0.003l4.582,29.653c0.001,0.003,0.001,0.003,0.001,0.006c0.394,2.554-1.412,2.803-2.025,2.815H8.547   c-2.885,0-2.815,2.141-2.815,2.141s-0.093,2.326,3.234,2.326h42.365C53.89,40.331,53.843,38.168,53.843,38.168z M41.668,30.147   l-0.026,0.167l-0.431,2.445v0.006l-0.048,0.271c-0.149,0.732-0.838,2.767-3.953,2.767H21.598c-2.692,0-3.222-2.138-3.324-2.805   l-0.027-0.207l-0.001-0.006l-0.309-2.286c0-0.003,0-0.003,0-0.004l-0.052-0.337c0-0.003,0-0.006,0-0.009   c-0.292-2.128,1.05-2.5,1.748-2.554h19.751C39.976,27.606,42.076,27.804,41.668,30.147z" fill="#241F20"/><path d="M56.801,57.173c-0.812,0-1.469,0.657-1.469,1.467v1.15c0,0.026-0.007,0.042-0.009,0.065   c0.005,0.038,0.021,0.068,0.021,0.106c0,0.583-0.472,1.053-1.052,1.053c-0.584,0-1.055-0.47-1.055-1.053   c0-0.008,0.002-0.014,0.002-0.02h-0.009v-1.511v-0.453v-2.039v-0.808c0-1.85-0.37-2.991-0.659-3.602   c-0.042-0.082-0.086-0.162-0.128-0.242c-0.045-0.082-0.101-0.158-0.151-0.233c-0.158-0.231-0.334-0.449-0.527-0.65   c-0.074-0.071-0.152-0.138-0.231-0.205c-0.051-0.046-0.106-0.089-0.16-0.134c-1.488-1.138-3.561-1.265-4.209-1.276h-2.217h-0.733   c-0.849-3.126-3.677-5.437-7.07-5.437c-4.062,0-7.357,3.294-7.357,7.357c0,4.062,3.295,7.355,7.357,7.355   c3.656,0,6.665-2.674,7.236-6.169h2.465v0.007c0.679,0.012,1.319,0.159,1.913,0.401c0.453,0.217,1.739,1.023,1.739,3.302v3.172   c0,1.109,0.088,1.786,0.177,2.195c0.503,1.725,2.079,2.989,3.965,2.989c0.973,0,1.844-0.362,2.545-0.929   c0.42-0.413,1.113-1.392,1.082-3.414v-0.98C58.267,57.83,57.61,57.173,56.801,57.173z" fill="#241F20"/></g></svg>