<?xml version="1.0" ?><!DOCTYPE svg  PUBLIC '-//W3C//DTD SVG 1.1//EN'  'http://www.w3.org/Graphics/SVG/1.1/DTD/svg11.dtd'><svg height="512px" style="enable-background:new 0 0 512 512;" version="1.1" viewBox="0 0 512 512" width="512px" xml:space="preserve" xmlns="http://www.w3.org/2000/svg" xmlns:xlink="http://www.w3.org/1999/xlink"><g id="_x31_11"><g><g><g><g><g><g><path d="M85.158,337.489c0.223-0.297-0.489-0.573-0.58-0.695         C84.429,337.461,85.339,337.57,85.158,337.489z" style="fill:#202020;"/><path d="M84.728,342.948l-0.263-0.184c0,0,0.119,0.226,0.238,0.452         c0.125,0.224,0.249,0.447,0.249,0.447L84.728,342.948z" style="fill:#202020;"/><path d="M83.315,347.007c1.354,0.013,0.303-1.537,0.988-2.116l0.32-0.021l-0.875-0.671         C83.604,345.141,83.861,346.49,83.315,347.007z" style="fill:#202020;"/><path d="M79.92,348.434c0.53,0.001,0.263,0.619,0.32-0.49c-0.069,0.036-0.104,0.042-0.153,0.061         C80.065,348.099,80.024,348.227,79.92,348.434z" style="fill:#202020;"/><path d="M80.088,348.004C80.196,347.539,79.587,348.18,80.088,348.004L80.088,348.004z" style="fill:#202020;"/><path d="M79.713,350.175l-0.251-0.716c-0.327,0.045-0.559,0.564-0.706,0.308         C78.834,350.435,79.164,350.381,79.713,350.175z" style="fill:#202020;"/><path d="M80.499,350.966l-0.113-0.348C80.252,350.638,80.191,350.706,80.499,350.966z" style="fill:#202020;"/><path d="M80.177,349.87c0,0,0.046,0.189,0.093,0.378c0.058,0.186,0.115,0.37,0.115,0.37         c0.224-0.029,0.63,0.072-0.069-0.328C80.671,350.442,80.354,350.22,80.177,349.87z" style="fill:#202020;"/><path d="M80.483,349.555c0.376-0.257,0.68-0.63,0.928,0.08         C81.59,348.469,80.664,348.369,80.483,349.555z" style="fill:#202020;"/><path d="M84.527,347.631l0.495-0.306l-0.29-0.498C84.871,347.071,84.132,347.531,84.527,347.631z" style="fill:#202020;"/><path d="M78.204,353.599c0.259,0.104,0.76-0.011,1.113,0.034l-0.206-0.505         C78.876,353.3,78.608,353.671,78.204,353.599z" style="fill:#202020;"/><path d="M79.317,353.633l0.308,0.754C79.814,353.833,79.621,353.673,79.317,353.633z" style="fill:#202020;"/><path d="M81.868,351.439c0,0-0.179-0.324-0.357-0.648c-0.182-0.323-0.328-0.657-0.327-0.657         c0,0,0.128,0.387,0.31,0.76c0.17,0.375,0.34,0.75,0.34,0.75L81.868,351.439z" style="fill:#202020;"/><polygon points="77.588,356.029 77.055,355.513 77.838,356.391        " style="fill:#202020;"/><path d="M77.312,357.674c-0.451-0.394-0.959,0.156-1.208-0.204c-0.014,0.464,0.339,0.946,0.657,1.379         C76.623,358.437,76.772,358.066,77.312,357.674z" style="fill:#202020;"/><path d="M77.205,359.553c-0.081-0.208-0.258-0.446-0.445-0.704         C76.833,359.067,76.959,359.296,77.205,359.553z" style="fill:#202020;"/><path d="M79.234,355.436c-0.174,0.009-0.621-0.003-0.885,0.31l0.814-0.062         C79.185,355.607,79.209,355.522,79.234,355.436z" style="fill:#202020;"/><path d="M79.189,355.681l-0.026,0.003c-0.086,0.266-0.146,0.45-0.171,0.529         C79.017,356.146,79.076,355.985,79.189,355.681z" style="fill:#202020;"/><path d="M79.252,355.373c-0.007,0.023-0.012,0.04-0.019,0.063         C79.314,355.431,79.342,355.422,79.252,355.373z" style="fill:#202020;"/><path d="M80.792,352.92c0.331,0.482,0.599,1.372,1.419,0.79         C81.759,353.31,81.291,353.645,80.792,352.92z" style="fill:#202020;"/><path d="M80.269,355.301l0.333-0.629c-0.202-0.037-0.521,0.01-0.687-0.228L80.269,355.301z" style="fill:#202020;"/><polygon points="80.43,355.69 80.269,355.301 80.146,355.534        " style="fill:#202020;"/><path d="M78.189,358.563c0.259,0.371,0.211,0.696,0.179,1.069c0.241-0.351,0.416-0.73,0.504-1.109         C78.647,358.412,78.261,358.143,78.189,358.563z" style="fill:#202020;"/><path d="M78.742,357.178c0.008,0.023,0.02,0.054,0.027,0.075         C78.843,357.229,78.871,357.202,78.742,357.178z" style="fill:#202020;"/><path d="M77.517,363.178c0.052-0.009,0.098-0.017,0.151-0.026c-0.043-0.014-0.077-0.025-0.127-0.042         L77.517,363.178z" style="fill:#202020;"/><path d="M79.028,358.491c0.215-0.254,0.072-0.472-0.123-0.694c0.025,0.235,0.02,0.478-0.034,0.726         C78.974,358.572,79.044,358.594,79.028,358.491z" style="fill:#202020;"/><path d="M77.322,360.629c0.194-0.115,0.369-0.255,0.536-0.406         C77.584,360.314,77.138,360.529,77.322,360.629z" style="fill:#202020;"/><path d="M78.537,357.3c-0.009-0.018-0.02-0.034-0.023-0.052         C78.329,357.304,78.411,357.312,78.537,357.3z" style="fill:#202020;"/><path d="M78.537,357.3c0.073,0.177,0.231,0.339,0.369,0.497c-0.017-0.19-0.059-0.374-0.137-0.544         C78.707,357.276,78.617,357.292,78.537,357.3z" style="fill:#202020;"/><path d="M82.136,365.329c-0.692-0.205-1.163-1.104-0.253-1.585c-0.374-0.758-2.786-0.868-4.214-0.593         c0.302,0.089,0.586,0.153,0.843,0.911c0.44-0.148,1.25-1.271,1.752-0.567c0.153,0.957-0.42,0.661-0.894,1.005         c0.963-0.166,1.011,1.396,2.347,1.486l-0.272-0.863C81.648,365.153,81.902,365.501,82.136,365.329z" style="fill:#202020;"/><path d="M78.043,361.897l-0.022-0.294c-0.197,0.285-0.531,0.444-1.18,0.732         c0.234,0.536,0.473,0.688,0.699,0.773l0.42-1.329L78.043,361.897z" style="fill:#202020;"/><path d="M78.312,360.371c0.712,0.394,0.881,1.125,1.804,0.915c0.138-0.813-0.504-0.71-0.721-1.268         c-0.12,1.341-0.336-0.473-0.993,0.362c-0.069-0.285-0.054-0.524-0.034-0.749c-0.149,0.212-0.317,0.411-0.509,0.591         c0.021-0.008,0.037-0.013,0.054-0.019l0-0.007l0.012,0.004c0.108-0.034,0.171-0.038,0.101,0.012         c0.009,0.007,0.008,0.023,0.009,0.03c0.104,0.034,0.191,0.08,0.274,0.127c-0.248,0.339-0.213,0.013-0.274-0.127         c-0.036-0.013-0.07-0.031-0.109-0.042l-0.011,0.003l0.108,1.399C78.193,361.353,78.253,361.003,78.312,360.371z" style="fill:#202020;"/><path d="M83.68,354.819c-0.076,0.022-0.13,0.007-0.186-0.004         C83.567,354.922,83.623,354.97,83.68,354.819z" style="fill:#202020;"/><path d="M83.095,355.23c-0.083-0.12-0.369-0.276-0.218-0.561c0.291-0.205,0.364,0.095,0.617,0.146         c-0.158-0.235-0.393-0.783-0.898-0.302l0.082,0.117c-0.385,0.451-1.493,0.88-1.576,0.763         C81.822,355.415,82.342,355.404,83.095,355.23z" style="fill:#202020;"/><path d="M80.893,357.869l0.117,1.167l0.791-0.388l-0.403-0.068         C81.698,358.007,81.179,358.02,80.893,357.869z" style="fill:#202020;"/><polygon points="77.106,363.216 76.333,362.891 77.325,363.773        " style="fill:#202020;"/><polygon points="76.867,364.648 76.176,364.441 76.512,364.907        " style="fill:#202020;"/><path d="M357.912,102.059c0,0-0.052-0.063-0.172-0.105c-0.121-0.033-0.289-0.056-0.454-0.062         c-0.333-0.016-0.643,0.007-0.643,0.007C357.212,101.914,357.677,101.882,357.912,102.059z" style="fill:#202020;"/><path d="M367.048,121.601l0.515,0.509C367.051,121.034,366.778,120.605,367.048,121.601z" style="fill:#202020;"/><path d="M276.569,375.473c0.133,2.541,0.203,5.254,0.327,7.24c0.03,0.496,0.064,0.946,0.104,1.337         c0.023,0.195,0.044,0.376,0.063,0.54c0.022,0.164,0.042,0.292,0.083,0.504c0.051,0.345,0.193,0.698,0.294,0.862         c0.104,0.175,0.171,0.146,0.239,0.023c0,0-0.003-0.176-0.006-0.439c-0.014-0.276,0.063-0.534,0.104-0.82         c0.121-0.421,0.243-0.843,0.243-0.843C277.234,380.438,276.824,377.761,276.569,375.473z" style="fill:#202020;"/><path d="M416.21,318.226c0.024,0.481,0.051,0.981,0.076,1.477c0.522,1.123,1.015,2.18,1.455,3.125         C417.281,321.444,416.758,319.873,416.21,318.226z" style="fill:#202020;"/><path d="M412.267,315.483l-0.903-6.527C411.505,310.438,411.789,312.538,412.267,315.483z" style="fill:#202020;"/><path d="M225.578,105.756l-4.015,0.712C227.816,106.608,225.074,106.14,225.578,105.756z" style="fill:#202020;"/><path d="M198.847,416.126c1.09,0.119,2.123,0.232,3.108,0.34c1.087,0.07,2.055,0.104,2.969,0.125         c1.829,0.032,3.471,0.021,5.033-0.046c-2.701-0.091-5.062-0.311-7.05-0.45c-1.042-0.063-1.828-0.158-2.508-0.164         C199.726,415.921,199.199,415.978,198.847,416.126z" style="fill:#202020;"/><path d="M369.276,104.666c-1.184-1.811-1.79-2.51-1.91-2.368         C368.594,104.131,369.33,105.165,369.276,104.666z" style="fill:#202020;"/><path d="M223.583,408.222c-0.556,0.748-1.064,1.422-1.641,2.096c-0.253,0.371-0.512,0.74-0.786,1.109         c-0.277,0.369-0.52,0.7-1.006,1.268c-0.875,0.998-1.819,2.001-3.025,2.654c-0.308,0.147-0.61,0.324-0.935,0.43         c-0.322,0.118-0.68,0.169-1.023,0.249c-0.697,0.133-1.425,0.245-2.153,0.324c-0.519,0.039-1.046,0.079-1.584,0.12         c-0.496,0.037-0.97,0.05-1.472,0.073c0.503,0.012,0.995,0.036,1.532,0.03c0.572-0.011,0.928,0.018,1.881-0.054         c0.862-0.076,1.737-0.183,2.602-0.362c0.223-0.029,0.416-0.126,0.626-0.187c0.187-0.113,0.404-0.176,0.6-0.277         c0.4-0.188,0.772-0.429,1.135-0.688c0.719-0.531,1.36-1.183,1.978-1.856c0.684-0.773,1.003-1.206,1.37-1.718         C222.405,410.418,223.02,409.386,223.583,408.222z" style="fill:#202020;"/><path d="M98.415,323.804c-0.042,0.026-0.067,0.063-0.115,0.084         C98.403,323.92,98.418,323.875,98.415,323.804z" style="fill:#202020;"/><path d="M87.223,334.776c-0.007-0.137,0.057-0.337,0.107-0.527         C87.249,334.323,87.205,334.479,87.223,334.776z" style="fill:#202020;"/><path d="M104.803,404.914C101.63,404.339,104.284,404.905,104.803,404.914L104.803,404.914z" style="fill:#202020;"/><path d="M90.134,398.422c0.695,0.076,1.231,0.088,1.353-0.07         C91.183,398.475,90.714,398.486,90.134,398.422z" style="fill:#202020;"/><path d="M228.138,375.015c0.025-0.091,0.046-0.163,0.075-0.267         C227.813,375.628,227.885,375.478,228.138,375.015z" style="fill:#202020;"/><path d="M100.126,403.54c1.165,0.352,2.511,0.757,3.987,1.113         C103.472,404.479,102.263,404.107,100.126,403.54z" style="fill:#202020;"/><path d="M100.687,404.047c-1.082-0.271-1.933-0.485-2.742-0.689         C97.519,403.397,97.853,403.557,100.687,404.047z" style="fill:#202020;"/><path d="M109.215,405.732c-1.811-0.341-3.491-0.707-5.102-1.079c0.61,0.173,0.861,0.268,0.689,0.261         C105.731,405.086,107.042,405.329,109.215,405.732z" style="fill:#202020;"/><path d="M110.542,243.852c-0.054,0.199-0.117,0.428-0.176,0.645c-0.091,1.538-0.049,2.049-0.021,1.773         C110.366,246.015,110.443,245.065,110.542,243.852z" style="fill:#202020;"/><path d="M338.321,405.529c-0.146,0.034-0.226,0.053-0.358,0.083c0.149-0.01,0.337-0.021,0.473-0.03         L338.321,405.529z" style="fill:#202020;"/><path d="M349.656,403.534c-4.739,1.577-7.519,1.799-11.221,2.048l4.03,1.795L349.656,403.534z" style="fill:#202020;"/><path d="M301.782,103.766l8.125,0.36c-9.72,1.587-16.811,1.489-9.165,2.159         c1.039-2.52,31.463-1.607,32.465-4.121l5.363,0.29c-1.531,0.042-1.769,0.197-3.28,0.238c5.219,0.368,7.124-0.161,9.396-0.81         c1.127-0.313,2.398-0.696,4.063-0.974c1.683-0.255,3.982-0.427,7.088-0.13c0.251,0.034,0.497,0.068,0.738,0.101         c0.139,0.029,0.274,0.058,0.406,0.085c0.253,0.06,0.481,0.128,0.682,0.204c0.196,0.083,0.375,0.159,0.491,0.291         c0.107,0.138,0.156,0.297,0.207,0.408c0.146,0.497,0.018,0.551-0.448,0.193c-0.001,0,0.184,0.154,0.438,0.44         c0.065,0.075,0.137,0.155,0.211,0.241c0.051,0.065,0.049,0.045,0.146,0.184c0.081,0.112,0.163,0.227,0.248,0.343         c0.337,0.461,0.692,0.994,1.051,1.506c0.712,1.04,1.418,2.098,1.932,2.892c0.51,0.793,0.85,1.322,0.85,1.322         c0.696,1.3,0.76,1.753,0.608,1.672c-0.086-0.048-0.246-0.248-0.459-0.584c-0.223-0.346-0.527-0.855-0.86-1.488         c0,0,0.117,0.206,0.32,0.565c0.203,0.359,0.506,0.884,0.806,1.456c0.605,1.193,1.29,2.94,2.042,4.615         c0.406,0.854,0.626,1.671,0.926,2.453c0.282,0.778,0.546,1.505,0.771,2.128c0.435,1.442,0.725,2.404,0.725,2.404         l-0.104-0.098c1.012,2.121,3.022,6.956,3.965,9.311c0.801,3.996-0.823-1.876-0.823-0.801c0,0,0.755,2.101,1.538,4.142         c0.775,2.055,1.552,4.111,1.552,4.111c0.427,3.582-2.295-3.117-3.915-9.054c-0.04,4.386,0.664,6.006,1.794,8.825         c1.124,2.785,2.781,6.714,4.547,15.323l-2.634-7.8c0.179,5.502,2.455,11.486,4.235,20.614         c-0.176-2.213-3.127-18.424,0.131-9.536c0.553,2.617,1.526,5.98,3.353,10.78c-0.836,0.275,0.645,5.042,2.285,11.067         l-1.235-0.12c1.016,3.218,1.658,4.662,2.185,5.766c0.501,1.104,0.952,1.869,1.626,3.733         c1.475,7.322,0.922,9.019,0.549,10.879c1.175,5.824,1.094,3.753,1.118,1.931c0.012-1.813,0.184-3.421,1.738,3.51         c1.447,9.96,3.238,16.805,6.179,28.494c0.925,6.986-0.932-1.08-0.786,1.461l2.083,5.958c0.265,1.505-0.108,1.072-0.297,0.853         c1.34,5.098,1.226,0.214,3.086,8.276c0.84,0.979,1.175,5.231,1.718,10.46c0.538,5.23,1.248,11.508,2.901,16.414         c0.137,2.557-0.921-1.063-1.223-0.212c1.697,6.868,2.617,9.732,3.38,12.333c0.785,2.591,1.545,4.866,3.403,10.367         l1.349,9.761c-0.685-7.237,2.293,1.56,4.847,9.27c-0.134-2.59-0.238-4.805-0.38-6.275l3.359,12.458         c0.145,1.562-0.522,0.379-1.448-1.581c0.289,0.837,0.563,1.629,0.776,2.247c0.656,4.563-0.589,2.418-1.942-0.683         c-0.098-1.586-0.195-3.159-0.289-4.689c-1.37-2.962-2.771-5.707-3.296-4.914c0.311,0.79,0.768,2.343,1.209,4.063         c-0.365-0.773-0.646-1.257-0.677-0.855c-0.027,0.454,0.511,1.715,1.252,3.711l-0.643,3.142l0.654,0.585         c0.001,0,0.169,1.036,0.487,2.638c0.153,0.798,0.333,1.729,0.524,2.726c0.216,0.983,0.446,2.031,0.677,3.08         c0.443,2.097,0.979,4.188,1.374,5.761c0.366,1.554,0.722,2.666,0.721,2.666c0.348,0.738,0.693,1.47,1.036,2.199         c0.313,0.626,0.622,1.25,0.933,1.872c0.645,1.187,1.182,2.58,1.781,3.898c1.148,2.693,2.235,5.516,3.246,8.601         c1.055,3.102,2.148,6.444,3.264,10.156c0.558,1.857,1.123,3.811,1.696,5.88c0.281,1.035,0.569,2.099,0.866,3.192         c0.069,0.269,0.139,0.538,0.209,0.81c0.033,0.275,0.064,0.551,0.088,0.841c0.047,0.576,0.079,1.162,0.09,1.759         c-0.231-1.182-0.495-1.822-0.718-2.104c-0.229-0.267-0.427-0.218-0.621-0.077c-0.388,0.249-0.787,1.112-1.357,0.995         c0.068-0.277,0.109-0.657,0.147-0.865c0.017-0.114,0.04-0.233,0.028-0.354l-0.01-0.183l-0.034-0.278         c-0.105-0.779-0.259-1.609-0.449-2.486c-0.381-1.752-0.91-3.688-1.501-5.761c-0.592-2.072-1.244-4.283-1.87-6.586         c-0.629-2.309-1.229-4.703-1.682-7.075c0.964,4.987,0.214,4.036-0.26,2.788l4.942,17.07         c-0.494-0.096-0.457,0.861-0.216,2.417c0.054,0.327,0.046,0.414,0.037,0.706c0.002,0.388-0.004,0.822-0.023,1.281         c-0.035,0.92-0.13,1.953-0.297,3.003c0.504-0.77,0.795-0.406,0.913,0.722c0.111,1.119,0.029,3.022-0.36,5.106         c-0.042,0.206-0.085,0.416-0.128,0.629c-0.045,0.187-0.091,0.376-0.138,0.566c-0.104,0.381-0.231,0.769-0.402,1.144         c-0.172,0.37-0.387,0.751-0.735,0.984c-0.373,0.181-0.801,0.182-1.197,0.279c-0.852,0.155-1.903,0.334-3.079,0.635         c-1.119,0.269-2.146,0.529-3.021,0.777c-0.283-0.254-0.031-0.621,1.39-1.128c0.355-0.126,0.783-0.262,1.294-0.406         c0.256-0.069,0.532-0.144,0.829-0.224c0.278-0.069,0.671-0.174,0.889-0.212c0.46-0.084,0.98-0.178,1.566-0.284         c0.23-0.049,0.487-0.053,0.736-0.141c0.246-0.108,0.425-0.339,0.582-0.582c-0.229,0.215-0.479,0.4-0.78,0.451         c-0.308,0.005-0.585,0.009-0.841,0.031c-0.204,0.013-0.638,0.075-0.958,0.132c-0.169,0.033-0.335,0.065-0.499,0.098         c-0.162,0.034-0.431,0.107-0.635,0.161c-1.745,0.475-3.241,1.058-4.725,1.645c-2.937,1.197-5.84,2.454-10.586,2.852         c2.086-0.43,3.23-0.61,3.989-1.085c-2.376,0.837-6.581,1.652-9.846,2.16c-3.266,0.512-5.585,0.708-4.227,0.178l2.079-0.407         c-3.485,0.559-7.798,1.558-12.554,2.025c-4.719,0.597-9.704,1.267-14.309,1.945c-9.207,1.357-16.892,2.749-17.853,3.647         c-0.163-0.181,1.623-2.08,2.436-2.496l-24.606,8.292c2.074-1.597-6.772-3.692,4.843-5.886         c-3.379,0.226-7.554,0.525-14.584,1.859c2.308-0.087,5.909,1.208,2.788,1.719c-1.094-0.059-2.01-0.074-2.794-0.136         c-0.782-0.082-1.436-0.149-2.007-0.209c-1.141-0.108-1.955-0.161-2.83-0.204c-1.747-0.085-3.752-0.132-9.041-0.504         c3.428,0.118-0.271,2.387-5.736,2.588c0.843-0.354-0.478-2.035,1.49-2.35c0,0-0.817,0.163-2.043,0.407         c-1.06,0.189-2.707,0.317-4.308,0.335c-0.402,0.006-0.803,0.002-1.19-0.008c-0.19-0.007-0.38-0.013-0.567-0.02         c-0.138,0-0.271,0.006-0.417-0.004c-0.563-0.031-1.166-0.062-1.576-0.304c-0.38-0.269-0.727-0.487-0.954-0.685         c-0.237-0.208-0.372-0.326-0.372-0.326c0.518,0.527,0.862,0.622,1.07,0.574c0.208-0.058,0.281-0.306,0.295-0.626         c0.007-0.164-0.002-0.328-0.017-0.54c-0.009-0.098-0.02-0.202-0.029-0.312c-0.023-0.12-0.078-0.275-0.122-0.418         c-0.198-0.571-0.438-1.239-0.722-1.884c0.053,0.158-0.004,0.143-0.149-0.013c-0.068-0.074-0.178-0.199-0.271-0.324         c-0.079-0.113-0.172-0.249-0.278-0.403c-0.229-0.227-0.443-0.921-0.709-1.531c-0.26-0.643-0.549-1.358-0.852-2.107         c-0.602-1.63-1.255-3.404-1.835-4.978c-0.299-0.788-0.579-1.525-0.824-2.17c-0.225-0.661-0.417-1.226-0.562-1.651         c0,0,0.075,0.352,0.188,0.879c0.098,0.538,0.295,1.214,0.49,1.893c0.386,1.363,0.772,2.726,0.772,2.726         c-0.314-0.889-0.619-1.717-0.918-2.491c-0.303-0.773-0.599-1.493-0.823-2.206c-0.484-1.404-0.957-2.623-1.421-3.719         c-0.464-1.095-0.92-2.066-1.373-2.977c-0.231-0.453-0.456-0.893-0.678-1.326l-0.169-0.322l-0.141-0.227         c-0.082-0.176-0.163-0.363-0.255-0.598c-1.394-3.553-2.926-7.098-4.158-14.633c0.723,1.759,3.312,4.035,2.297-3.607         c-0.407-0.832-1.063-2.173-1.911-3.904c-0.391-0.857-0.918-1.877-1.477-2.951c-0.573-1.065-1.082-2.229-1.767-3.379         c-2.587-4.673-5.574-10.457-8.209-16.529l-0.315-2.667l-4.146-9.597c1.833,2.814,5.073,8.195,8.367,13.978         c1.688,2.92,3.21,6.017,4.679,8.934c0.686,1.486,1.348,2.924,1.972,4.277c0.305,0.688,0.612,1.325,0.878,1.998         c0.254,0.696,0.498,1.364,0.73,1.999c-0.452-3.154-0.456-3.469-0.547-4.273c-0.122-0.766-0.345-1.904-1.651-6.094         c-0.196-1.559,0.366-0.484,1.076,1.295c0.67,1.802,1.474,4.317,1.848,5.564l-1.331-4.978c-0.448-1.657-0.955-3.278-1.43-4.92         l-0.731-2.46l-0.826-2.522l-1.612-4.845c-0.851,1.259-6.245-13.861-6.977-12.879c0,0,2.12,5.003,4.241,10.006         c1.059,2.506,2.117,5.013,2.911,6.892c0.814,1.983,1.357,3.305,1.357,3.305c-0.214,0.315-0.798-0.241-1.619-1.449         c-0.41-0.604-0.881-1.373-1.394-2.272c-0.508-0.867-1.061-1.871-1.643-2.992c-1.165-2.242-2.448-4.949-3.726-7.938         c-0.639-1.494-1.276-3.059-1.897-4.67c-0.068-0.171-0.176-0.485-0.277-0.69l-0.266-0.597l-0.527-1.204         c-0.341-0.811-0.684-1.627-1.027-2.446c-0.965-3.513,3.066,1.646,3.325,1.212c-0.554-0.765-2.056-3.782-3.45-6.774         c-0.173-0.374-0.345-0.748-0.516-1.116c-0.24-0.546-0.478-1.083-0.709-1.606c-0.454-1.035-0.883-2.012-1.264-2.878         c-0.771-1.687-1.396-2.883-1.573-3.354c0,0.001,1.104,1.613,2.141,3.554c1.044,2.038,2.087,4.076,2.087,4.076         c-2.122-5.898-4.771-10.353-7.521-12.351c-0.687-0.523-1.352-0.955-2.117-1.317c-0.194-0.089-0.397-0.171-0.631-0.231         c-0.214-0.07-0.58-0.066-0.721,0.091c-0.391,0.221-0.695,0.519-1.042,0.796c-0.663,0.611-1.368,1.276-2.119,2.191         c-0.188,0.242-0.379,0.487-0.573,0.735c-0.195,0.249-0.401,0.473-0.589,0.804c-0.396,0.615-0.803,1.249-1.224,1.902         c-0.519,1.062-1.24,2.278-1.992,3.705c-0.386,0.7-0.789,1.435-1.172,2.201c-0.375,0.724-0.845,1.672-1.052,2.006         c-1.048,1.861-1.879,3.442-1.646,3.84c3.268-4.486,7.669-3.878,7.333-0.163c-0.51,1.037-7.568,15.572-9.586,18.813         c-3.004,4.64,0.55-8.516-2.015-4.568c0.239,0.306-0.474,3.24-0.807,4.449c-1.531,3.11-0.441-1.712-3.049,5.332         c0.181,0.423-0.058,1.567-0.437,2.871c-0.186,0.652-0.423,1.346-0.633,2.01c-0.196,0.663-0.384,1.3-0.543,1.837         c-0.629,2.154-0.917,2.68,1.396-2.879c-0.546,1.814-0.829,3.2-1.2,4.38c-0.353,1.179-0.672,2.161-0.956,3.197         c-0.295,1.034-0.603,2.108-0.986,3.451c-0.19,0.671-0.321,1.446-0.5,2.305c-0.151,0.795-0.318,1.681-0.509,2.686         c1.516-2.514,0.604,8.162-0.983,15.331c-0.19-0.5-1.021,0.984-1.412,1.707c-1.016,3.621-1.944,6.815-2.823,9.78         c-0.221,0.741-0.438,1.468-0.651,2.185c-0.219,0.767-0.35,1.472-0.523,2.176c-0.339,1.406-0.605,2.788-1.04,4.133         c-0.397,1.35-0.793,2.692-1.194,4.051c-0.449,1.341-0.904,2.697-1.372,4.095c-0.231,0.698-0.537,1.341-0.803,2.031         c-0.138,0.341-0.277,0.685-0.417,1.032c-0.177,0.317-0.368,0.641-0.579,0.963c-0.416,0.647-0.875,1.298-1.367,1.944         c-0.493,0.648-1.026,1.303-1.536,1.85c-0.25,0.147-0.684,0.531-1.269,0.825c-0.284,0.174-0.661,0.167-1.008,0.188         c-0.351,0.008-0.696-0.015-1.005-0.027c-0.582-0.041-1.288-0.105-1.51-0.2c-0.25-0.096-0.143-0.227,0.546-0.41         c-1.935,0.35-3.774,0.89-8.052,0.986c-2.029-0.253-2.484-0.477-2.069-0.528c0.435-0.053,1.611-0.07,2.934-0.131         c2.623-0.114,5.482-0.353,2.318-0.866c-0.127,0.183-0.879,0.36-2.027,0.52c-1.164,0.157-2.627,0.293-4.394,0.29         c-3.479,0.054-7.662,0.041-10.741,0.125c0.906,0.599,4.454,0.816,8.538,0.863c2.047,0.015,4.216,0.05,6.229-0.147         c2.031-0.167,3.944-0.376,5.456-0.574c0.055,0.755-2.546,1.734-7.096,2.439c-2.285,0.293-5.006,0.441-8.105,0.586         c-1.547,0.065-3.185,0.117-4.898,0.152c-0.857,0.014-1.733,0.027-2.626,0.042c-0.891-0.002-1.79-0.05-2.709-0.08         c-11.661-0.631-4.963-1.427-7-1.386c-10.904-1.083-15.614-0.819-19.86-0.621c-4.232,0.304-8.057,0.077-17.092-1.727         c-7.06-1.989-0.014-1.968-1.505-2.892c9.459,0.919,14.371,2.824,20.81,3.206c0,0-1.963-0.287-3.926-0.574         c-1.966-0.244-3.917-0.676-3.917-0.676c1.511,0.1,3.858,0.131,6.249,0.272c2.391,0.141,4.828,0.362,6.536,0.653         c-1.486-0.351-4.53-0.736-8.521-1.153c-2.002-0.159-4.215-0.528-6.592-0.881c-2.377-0.347-4.913-0.718-7.533-1.1         c-2.619-0.383-5.322-0.777-8.034-1.173c-2.688-0.546-5.384-1.095-8.015-1.629c-5.257-1.089-10.24-2.172-14.341-3.179         c-3.008-0.253-8.161-0.913-5.835-0.059l5.273,0.891c4.668,1.716-10.097-0.859-3.526,0.799         c-3.585-0.371-7.371-0.919-11.507-1.586c-2.056-0.326-4.235-0.764-6.512-1.284c-1.137-0.259-2.298-0.538-3.484-0.842         c-0.296-0.077-0.594-0.154-0.894-0.232c-0.324-0.098-0.696-0.229-1.013-0.354c-0.656-0.257-1.282-0.533-1.897-0.844         c0,0-0.358-0.467-0.692-0.939c-0.309-0.46-0.708-0.99-0.708-0.99c0.126,0.248,1.516,1.214,3.526,2.035         c1.083,0.453,2.072,0.622,3.078,0.878c0.99,0.227,1.92,0.406,2.64,0.491c-1.067-0.129-2.534-0.515-4.203-1.014         c-0.395-0.109-0.884-0.276-1.347-0.48c-0.464-0.193-0.911-0.41-1.362-0.636c-0.919-0.47-1.724-0.925-2.783-1.597         c-0.986-0.642-1.933-1.319-2.641-2.178c-0.364-0.438-0.475-0.998-0.568-1.524c-0.084-0.535-0.146-1.063-0.178-1.583         c-0.041-0.52-0.081-1.025-0.119-1.512c-0.041-0.424-0.081-0.831-0.118-1.22c-0.095-0.777-0.206-1.474-0.37-2.084         c0,0-0.059,0.458-0.146,1.146c-0.036,0.344-0.079,0.744-0.125,1.173c-0.02,0.216-0.041,0.438-0.062,0.665l-0.026,0.344         l-0.021,0.435c-0.054,1.169-0.042,2.366,0.079,3.247c0.139,0.872,0.44,1.393,0.44,1.393         c-0.349-0.494-0.588-1.041-0.723-1.647c-0.171-0.594-0.264-1.229-0.354-1.881c-0.054-0.324-0.093-0.656-0.124-0.995         c-0.032-0.298-0.065-0.597-0.098-0.898c-0.049-0.512-0.098-1.029-0.148-1.552c-0.07-1.065-0.172-2.084-0.114-3.408         c0.079-1.051,0.158-2.119,0.239-3.201c0.176-2.165,0.391-4.389,0.674-6.634c0.144-1.122,0.294-2.253,0.484-3.376         c0.261-1.097,0.542-2.194,0.848-3.286c-1.017,1.891-1.107,2.408-1.287,3.199c-0.132,0.813-0.313,1.906-1.46,5.035         c0.617-1.337,0.69-0.544,0.505,1.246c-0.093,0.896-0.25,2.042-0.437,3.301c-0.096,0.63-0.197,1.287-0.299,1.956         c-0.052,0.335-0.105,0.672-0.158,1.009c-0.049,0.366-0.115,0.606-0.148,1.097l-0.054,0.659l-0.024,0.556         c-0.017,0.37-0.03,0.732-0.032,1.069c-0.015,0.687-0.008,1.341,0.004,1.95c0.003,0.323,0.018,0.56,0.035,0.934         c0.025,0.423,0.038,0.828,0.073,1.202c0.092,0.739,0.139,1.396,0.256,1.9c0.123,0.501,0.241,0.877,0.334,1.105         c0.111,0.221,0.202,0.293,0.232,0.212c0.028-0.08,0.012-0.322,0.014-0.766c-0.016-0.437-0.042-1.063,0.013-1.914         c-0.018,0.316-0.035,0.629-0.051,0.939c0.008,0.305,0.027,0.608,0.05,0.911c0.021,0.305,0.047,0.606,0.129,0.888l0.104,0.429         c0.031,0.064,0.004,0.159,0.084,0.198l0.08,0.207c0.453,1.092,1.293,1.908,2.194,2.659c0.459,0.368,0.942,0.718,1.451,1.039         c0.25,0.167,0.508,0.324,0.769,0.478l0.678,0.388c0.757,0.427,1.524,0.814,2.356,1.185c0.419,0.184,0.855,0.364,1.332,0.542         c0.545,0.204,0.917,0.301,1.316,0.416c0.803,0.241,1.632,0.49,2.499,0.75c1.722,0.536,3.61,1.192,5.667,1.994         c-0.181-0.418-2.818-1.35,4.531,0.475c0.356-0.03,1.171,0.012,1.688,0.044c0.224,0.063,0.302,0.085,0.494,0.139         c-0.145-0.049-0.253-0.085-0.398-0.134c0.331,0.018,0.361,0.013-0.149-0.049c-1.724-0.549-3.106-1.055-3.639-1.385         c1.924-0.025,5.803,0.7,9.725,1.318c3.923,0.609,7.873,1.276,9.9,1.449c4.349,1.027-1.915,0.057,0.402,0.909l6.06,0.517         c0.43,0.917,11.403,3.609,0.974,2.062l9.301,1.853c5.484,1.333,13.238,2.553,18.035,2.9c1.117,0.187,2.404,0.385,3.613,0.416         c1.21,0.039,2.366,0.041,3.26,0.034c1.788-0.014,2.527-0.061,0.556,0.09l14.859,0.784l0.119,0.216         c3.651,0.343,7.365,0.594,11.139,0.823c0.944,0.054,1.892,0.108,2.843,0.163c0.963,0.018,1.931,0.035,2.902,0.053         c1.941,0.041,3.897,0.082,5.871,0.124c1.971,0.063,3.958,0.127,5.962,0.19c2.134,0.058,4.168-0.015,6.232-0.044         c1.037-0.023,2.078-0.047,3.124-0.071l1.612-0.056c0.312-0.01,0.739-0.038,1.139-0.081c0.404-0.04,0.808-0.088,1.211-0.143         c1.661-0.104,3.076-1.02,4.298-2.137c0.298-0.291,0.61-0.572,0.901-0.878l0.759-0.802c0.418-0.446,0.812-0.892,1.205-1.346         c0.395-0.583,0.773-1.179,1.152-1.814c0.188-0.317,0.379-0.656,0.572-1.013l0.299-0.582l0.208-0.559         c0.273-0.748,0.552-1.513,0.839-2.301l0.211-0.595l0.153-0.53c0.101-0.354,0.204-0.712,0.309-1.077         c0.406-1.463,0.932-3.012,1.359-4.729c0.234-0.854,0.479-1.746,0.736-2.682c0.13-0.47,0.264-0.949,0.401-1.44         c0.118-0.515,0.239-1.041,0.363-1.581l1.039-1.565c0.074-0.419,0.152-0.864,0.234-1.331         c-0.003,0.038-0.013,0.076-0.028,0.112l0.063-0.245c0.06-0.222,0.121-0.449,0.183-0.68c0.263-0.919,0.543-1.903,0.834-2.921         c0.611-2.027,1.263-4.191,1.882-6.247c1.24-4.111,2.303-7.804,2.304-9.21c0.907-1.52,1.889-4.121,2.903-7.335         c0.125-0.402,0.252-0.814,0.382-1.233c0.072-0.242,0.145-0.486,0.218-0.732c0.056-0.172,0.116-0.463,0.166-0.728l0.096-0.501         c0.163-0.814,0.332-1.656,0.504-2.519c0.143-0.855,0.354-1.76,0.582-2.688c0.214-0.925,0.431-1.864,0.649-2.811         c0.472-1.88,1.001-3.804,1.515-5.665c0.288-0.894,0.575-1.782,0.858-2.659c0.147-0.445,0.264-0.86,0.434-1.323         c0.175-0.466,0.348-0.927,0.519-1.384c1.373-3.653,2.654-6.988,3.75-9.54l-0.706-0.727c1.425-3.548,2.749-7.05,4.107-10.786         c0.649-1.818,1.317-3.69,2.016-5.649c0.199-0.73,0.455-1.55,0.787-2.501c0.008-0.018-0.555-0.803-0.563-0.785         c0.344-1.129,0.834-2.41,1.606-3.479c0.057-0.056,0.097-0.147,0.19-0.146c0.087,0.003,0.163,0.062,0.231,0.115         c0.137,0.115,0.253,0.259,0.364,0.406c0.22,0.298,0.416,0.625,0.601,0.962c0.37,0.677,0.696,1.396,0.985,2.118         c0.291,0.717,0.537,1.461,0.752,2.151l0.166,0.499c0.063,0.184,0.073,0.244,0.252,0.696c0.282,0.729,0.566,1.464,0.853,2.202         c0.587,1.473,1.181,2.964,1.777,4.464c0.309,0.746,0.617,1.494,0.928,2.244l0.463,1.098l0.321,0.878         c-0.074-0.092-0.155-0.222-0.242-0.383c-0.074-0.13-0.216-0.455-0.205-0.38l-0.037-0.059l-0.077-0.157         c-0.055-0.117-0.112-0.239-0.171-0.365c-0.111-0.254-0.229-0.525-0.353-0.807c-0.476-1.132-0.965-2.455-1.336-3.566         c0.274,0.939,0.569,1.877,0.883,2.813l0.482,1.403l0.252,0.7c0.1,0.281-0.017,0.008,0.105,0.379         c0.584,1.913,1.23,3.824,1.919,5.729c1.368,3.792,2.941,7.625,4.44,11.277c1.451,3.47,2.828,7.192,3.986,10.758         c0.551,1.789,1.081,3.576,1.516,5.309c0.162,0.82,0.312,1.633,0.446,2.435c0.134,0.807,0.269,1.556,0.314,2.485         c0.875,3.438,1.194,5.97,1.4,8.445c-0.056-0.322-0.119-0.61-0.186-0.854c0.057,0.356,0.141,0.887,0.228,1.431         c0.105,1.562,0.253,3.172,0.442,4.91c-0.069-1.493-0.193-2.915-0.311-4.142c0.482,2.681,1.366,6.727,2.304,10.669         l-0.541,1.877c0.072,0.34,0.131,0.615,0.206,0.97c0.017,0.296,0.145,0.742,0.214,1.006c0.053,0.206,0.102,0.395,0.146,0.567         c0.094,0.343,0.182,0.616,0.264,0.828c0.164,0.424,0.304,0.6,0.417,0.584c0.228-0.032,0.351-0.83,0.359-1.939         c0.729,1.907,1.434,3.641,2.055,4.96c-0.185,1.754,0.594,4.273,1.77,6.887c0.55,1.311,1.109,2.655,1.542,3.968         c0.201,0.643,0.428,1.328,0.606,2c0.176,0.669,0.304,1.325,0.369,1.964c0.251,0.314,0.494,0.825,0.973,1.588         c0.282,0.39,0.616,0.88,0.941,1.299c0.309,0.383,0.643,0.795,0.995,1.231c0.358,0.448,0.739,0.861,1.188,1.379         c0.512,0.603,1.16,1.222,1.802,1.815c0.678,0.553,1.519,0.927,2.395,1.17c0.855,0.25,1.89,0.445,2.479,0.521         c1.375,0.195,2.692,0.289,3.967,0.324c0.64,0.012,1.259,0.014,1.88-0.017c0.303-0.01,0.623-0.036,0.925-0.059         c0.265-0.039,0.522-0.077,0.773-0.113c1.997-0.31,3.493-0.662,4.018-1.074c0.145,0.193,1.339,0.231-0.844,0.352         c4.511-0.044,9.039-0.09,13.045-0.724l2.016,1.014c0,0,0.608-0.124,1.521-0.31c0.896-0.251,2.09-0.586,3.284-0.921         c2.385-0.672,4.771-1.344,4.771-1.344c5.961-0.053,8.452,0.036,2.689,1.613c13.99-3.059,11.418-1.913,23.273-4.696         l-0.495,0.787c4.292-0.559,11.03-2.364,13.698-2.095c2.446,0.042,6.644-0.293,11.951-0.847         c2.651-0.297,5.583-0.625,8.714-0.976c3.126-0.467,6.444-1.163,9.883-1.784c1.719-0.322,3.467-0.649,5.234-0.98         c0.884-0.165,1.772-0.331,2.664-0.498c0.885-0.188,1.771-0.376,2.661-0.564c3.552-0.746,7.109-1.52,10.605-2.161l1.311-0.248         c0.438-0.082,0.833-0.164,1.432-0.245l1.65-0.243c0.615-0.138,1.229-0.274,1.841-0.411c1.264-0.13,2.249-1.081,2.924-2.082         c0.707-1.008,1.188-2.183,1.59-3.374c0.104-0.297,0.184-0.604,0.276-0.904l0.229-0.845c0.118-0.462,0.226-0.918,0.324-1.37         c0.196-0.902,0.358-1.789,0.499-2.664c0.278-1.751,0.473-3.453,0.584-5.146c-0.565,1.295-0.771,1.142-0.777,0.215         c-0.006-0.467,0.027-1.135,0.055-1.947c0.006-0.205,0.011-0.418,0.017-0.639c0.001-0.226,0.011-0.432,0-0.757         c0.034-0.575-0.162-1.332-0.189-1.693c-0.498-3.577-1.095-7.869-2.006-8.173c0.175-1.514-0.304-4.938,1-1.121         c-0.812-3.053-1.428-5.747-1.947-8.198c-0.534-2.434-0.913-4.776-1.408-6.898c-0.261-1.068-0.515-2.105-0.766-3.13         c-0.269-1.021-0.603-2.024-0.932-3.022c-0.175-0.497-0.349-0.994-0.524-1.495c-0.213-0.517-0.439-1.035-0.673-1.553         s-0.478-1.036-0.733-1.556c-0.24-0.484-0.458-0.89-0.71-1.348c0.034-1.443,1.511,2.114,1.389,0.856         c-0.392-0.828-1.622-3.261-1.683-4.654c-0.07-1.314,0.904,1.692,1.719,3.215c-0.248-0.685-0.481-1.331-0.702-1.941         c-0.223-0.661-0.432-1.282-0.629-1.868c-0.398-1.171-0.805-2.171-1.131-3.074c-0.675-1.795-1.274-3.057-1.82-3.959         c-1.039-1.794-1.89-2.156-2.707-2.44c-0.791-6.471-1.535-9.695-3.489-14.1c-0.022-2.329-0.348-6.149,1.531,1.66         c-0.896-4.43-5.204-27.106-6.44-27.316c0.006-1.445-1.306-6.183-1.604-7.326c-1.776-9.958-1.813-10.842-3.756-20.594         l0.328,2.746c-2.113-3.613-1.859-8.079-3.53-15.939l0.185,0.201c-2.457-18.277-1.968-7.723-4.238-25.783l-0.673,1.132         c-1.081-0.659-1.563-4.662-2.11-9.78c-0.273-2.559-0.563-5.397-0.953-8.234c-0.4-2.837-1.012-5.68-1.737-8.234l0.325,3.84         c-0.93-2.761-1.162-6.834-1.298-10.973c-0.071-2.066-0.104-4.154-0.209-6.076c-0.166-1.896-0.373-3.636-0.687-5.054         c-0.165-1.266,0.763,1.866,1.331,3.545c-2.807-14.983-1.61-1.62-4.754-12.497c0.049-2.177,2.233,2.192,0.335-5.203         c-0.297-1.894-2.345-7.083-4.541-13.073c-2.181-6.016-4.586-12.706-5.505-17.849c0.202,2.32,0.402,4.627-1.451-0.284         c-1.235-3.834-2.189-9.004-3.463-14.227c-0.392-1.404-0.8-2.806-1.226-4.17c-0.48-1.3-0.993-2.541-1.503-3.727         c-0.257-0.592-0.516-1.167-0.776-1.721c-0.266-0.552-0.613-1.089-0.915-1.585c-0.619-0.95-1.241-1.793-1.865-2.5         c-0.401-0.973-0.503-1.37-0.42-1.469c-0.439-0.655-0.946-1.412-1.502-2.242c-0.291-0.425-0.595-0.868-0.907-1.326         c-0.422-0.646-0.899-1.274-1.405-1.896c-0.252-0.307-0.481-0.656-0.788-0.911l-0.445-0.398         c-0.21-0.049-0.348-0.216-0.54-0.292c-0.71-0.4-1.549-0.56-2.38-0.703c-0.42-0.062-0.839-0.128-1.266-0.159         c-0.41-0.04-0.895-0.085-1.194-0.093c-0.641-0.034-1.263-0.045-1.881-0.051c-2.461-0.016-4.788,0.118-6.764,0.332         c-1.978,0.237-3.481,0.479-4.404,0.717c-5.815-2.769-38.037,3.103-38.029,0.319l-18.842,0.959l0.482-0.305         c-12.056,0.334-16.29,1.183-20.505,2.033c-2.791-0.07-0.766-0.417-0.541-0.572c-4.416,0.113-7.793-0.068-10.649-0.083         c-2.853-0.035-5.167-0.02-7.395,0.056c-2.23,0.063-4.362,0.238-6.879,0.393c-2.52,0.139-5.403,0.34-9.104,0.602l-1.517-0.937         c-2.007,0.216-8.367-0.284-16.383-0.756c-4.015-0.203-8.419-0.527-12.905-0.743c-4.5-0.213-9.021-0.321-13.4-0.244         c0.175-0.095,0.542-0.254,1.933-0.323c-4.928,0.053-10.256-0.175-15.695-0.419l-4.081-0.204         c-1.414-0.038-2.823-0.076-4.221-0.113c-0.622-0.016-1.242-0.031-1.858-0.046c-0.579-0.021-1.188-0.062-1.799-0.106         c-1.228-0.092-2.48-0.219-3.713-0.343c-1.249-0.128-2.474-0.255-3.669-0.378c-0.386-0.035-0.77-0.069-1.151-0.103         c-0.46-0.039-0.917-0.078-1.398-0.102c-0.474-0.029-0.948-0.066-1.398-0.03c-0.463,0.004-0.896,0.069-1.315,0.154         c-0.42,0.086-0.843,0.128-1.249,0.275c-0.352,0.251-0.684,0.514-0.997,0.787c-0.655,0.496-1.219,1.183-1.771,1.802         c-0.485,0.669-0.96,1.324-1.424,1.964c-0.288,0.431-0.568,0.851-0.842,1.261c-0.531,0.819-1.014,1.599-1.443,2.336         c-0.208,0.369-0.41,0.726-0.604,1.069c-0.096,0.182-0.19,0.36-0.282,0.535c-0.11,0.237-0.217,0.47-0.323,0.698         c-0.203,0.457-0.383,0.897-0.539,1.315c-0.118,0.387-0.176,0.72-0.245,1.057c-0.124,0.663-0.198,1.261-0.193,1.777         c0,0-1.05,3.196-1.864,6.355c-0.835,3.164-1.531,6.344-1.53,6.344c1.233-4.024,1.993-5.824,2.333-6.408         c0.35-0.581,0.336,0.072,0.238,1.016c-0.211,1.888-0.682,4.947,0.583,1.756c-0.44,1.576-1.026,3.355-1.579,5.036         c-0.285,0.839-0.562,1.653-0.815,2.401c-0.133,0.374-0.25,0.74-0.377,1.024c-0.151,0.314-0.293,0.608-0.423,0.876         c-1.083,2.187-1.575,2.563-0.347-1.168c0.013-0.021,0.09-0.174,0.221-0.507c0.12-0.298,0.24-0.596,0.24-0.596         c-0.114-0.415-0.29-0.414-0.514-0.091c-0.112,0.162-0.236,0.404-0.371,0.714c-0.072,0.155-0.099,0.216-0.178,0.358         c-0.059,0.102-0.168,0.347-0.255,0.535c-0.743,1.637-1.684,4.125-2.636,6.693c-1.902,5.136-3.845,10.589-4.32,10.186         c-1.413,3.803-2.559,7.841-3.809,11.773c-0.663,1.962-1.099,3.979-1.642,5.966c-0.518,1.991-1.035,3.979-1.55,5.963         c-1.825,7.858-3.638,15.66-5.435,23.399c-1.809,7.737-3.604,15.411-5.381,23.016c-0.875,3.806-1.747,7.594-2.613,11.364         c-0.854,3.775-1.739,7.499-2.42,11.354l1.964-3.254c0,0-0.516,2.649-1.031,5.298c-0.128,0.663-0.257,1.325-0.378,1.946         c-0.105,0.643-0.203,1.243-0.287,1.758c-0.167,1.03-0.278,1.716-0.278,1.716c-0.187,0.71-0.388,1.311-0.549,1.667         c-0.151,0.343-0.286,0.471-0.373,0.285c-0.19-0.324-0.084-2.157,0.58-6.077c-0.371,0.969-0.624,2.357-0.824,3.807         c-0.09,0.715-0.197,1.518-0.224,2.204c-0.03,0.691-0.044,1.382-0.048,2.046c-0.006,1.328,0.033,2.552,0.089,3.461         c0.042,0.47,0.038,0.805,0.043,1.047c0.009,0.246,0.03,0.397,0.06,0.428c-0.398,1.624-0.868,2.772-1.139,3.514         c-0.281,0.714-0.497,1.186-0.605,1.257c-0.112,0.086-0.138-0.15-0.106-0.591c0.032-0.44,0.085-0.953,0.177-1.582         c0.215-1.246,0.369-2.696,0.469-3.596c0.032-1.007-0.005-1.461-0.132-0.358c0.032,0.064-0.252,1.293-0.531,2.611         c-0.35,1.344-0.699,2.689-0.699,2.689l0.487-1.183c-0.177,1.253-0.314,2.224-0.44,3.115         c-0.125,0.946-0.235,1.806-0.396,2.787c-0.167,0.964-0.357,2.056-0.606,3.491c-0.26,1.415-0.624,3.158-1.146,5.436         c-0.242,0.854-0.24,0.935-0.423,1.213c-0.089,0.108-0.137,0.219-0.2,0.305c-0.033,0.054-0.048,0.063-0.092,0.145         c-0.084,0.18-0.164,0.348-0.238,0.505c-0.068,0.144-0.132,0.277-0.192,0.403c-0.03,0.069-0.058,0.135-0.084,0.195         c-0.058,0.119-0.106,0.22-0.148,0.307c-0.09,0.172-0.165,0.281-0.23,0.359c-0.258,0.314-0.373,0.115-0.716,1.481         c-0.088-0.041-0.263,0.846-0.5,3.885c0,0-0.273,3.342-0.547,6.683c-0.137,1.671-0.273,3.341-0.376,4.594         c-0.052,0.626-0.084,1.153-0.151,1.501c-0.054,0.354-0.084,0.557-0.084,0.557s0.112-0.318,0.279-0.797         c0.157-0.482,0.321-1.147,0.506-1.804c0.36-1.316,0.72-2.634,0.72-2.634c0.02,1.493-0.028,3.027-0.094,4.391         c-0.153,1.335-0.288,2.505-0.38,3.306c-0.155,1.601-0.02,1.747,1.001-1.228c-0.386,1.093-0.793,2.672-1.212,4.608         c-0.209,0.969-0.422,2.026-0.636,3.157c-0.104,0.566-0.212,1.149-0.322,1.75c-0.049,0.271-0.099,0.547-0.149,0.825         l-0.043,0.084c-0.222,0.453-0.343,1.011-0.424,1.565c-0.162,1.109-0.315,2.21-0.632,2.413         c0.583,0.91,0.402,1.667,0.104,2.588c0.267-0.191,1.457-0.106,1.136,0.677c-2.327-0.764-1.367,1.281-3.232,1.592         c1.271-0.356-0.226,2.354,1.596,1.764c-0.343,0.637-0.904-0.139-1.58,0.259c0.571,1.796-1.384,3.414-1.51,5.46         c0.306,0.098,0.859-0.134,1.23,0.391l-1.796,0.715c0.066,0.423,1.726,0.748,0.482,1.23c0.285-0.044,0.716-0.109,0.757,0.175         c-1.198,1.815-1.299,3.746-1.684,5.727c-0.381,1.959-0.976,3.929-2.98,5.324c0.753-0.311,0.703,0.043,0.6,0.437         c0.222-0.205,0.749,0.253,1.177,0.339c0,0-0.41,0.308-0.831,0.592c-0.418,0.282-0.836,0.563-0.836,0.563         c1.04,0.72-0.503,1.576,0.506,2.149l-0.015-0.528c0.511,0.56,1.289,0.643,2.155,0.632c0.864-0.005,1.819-0.11,2.615,0.241         c-1.181-1.282,2.895-1.347,1.201-3.326c0.431-0.177,0.458,0.411,0.892,0.382c-0.603-0.555-0.637-0.99-0.094-1.624         l0.152,0.137c0.446-2.111,1.401-2.78,2.493-5.034l-0.881-0.038c0.244-0.476,0.534-0.518,0.799-0.709         c-1.121-0.894-0.43,1.413-1.696,0.526c1.892-0.238,0.878-3.587,2.91-3.568c0.18-0.764-1.025,0.013-0.844-0.75l0.572-0.089         l-0.637-0.34c0.223-0.477,0.939-0.589,1.39-0.512c-0.08,0.11,0.048,0.373,0.058,0.512c0.766-0.519,0.195-1.882,0.446-2.063         l-0.488,0.667c-0.032-2.193,1.226-4.604,0.597-6.839l-0.434,0.072c-0.397-1.687,0.711-1.145,0.744-2.903l0.081,0.08         c-0.323-0.416-0.424-0.907-0.276-1.36c0.373,0.519,1.086-0.626,1.48,0.034c-0.424-1.824-0.44-0.948-1.682-2.334l0.719-0.127         c-0.516-0.49-0.826-0.581-0.811-1.455c0.416,0.798,1.129-0.349,1.71,0.568c0.942-0.739,0.661-1.495,0.454-2.101         c-0.102-0.303-0.188-0.57-0.107-0.791c0.04-0.11,0.122-0.209,0.263-0.296c0.036-0.021,0.075-0.042,0.118-0.062l0.068-0.029         l0.128-0.407c0.175-0.546,0.367-1.086,0.579-1.621c-0.147-2.301-0.435-2.398-0.775-1.355c-0.17,0.522-0.354,1.331-0.54,2.3         c-0.045,0.242-0.092,0.494-0.141,0.754l-0.035,0.195l-0.009,0.018l-0.018,0.037c-0.023,0.049-0.043,0.101-0.061,0.154         c-0.137,0.427-0.099,0.931-0.263,0.661c-0.328,0.143-0.647-0.091-0.852-0.425c-0.103-0.167-0.176-0.358-0.208-0.542         c-0.008-0.046-0.013-0.092-0.015-0.136c0.053-0.419,0.106-0.832,0.157-1.235c0.119-0.875,0.244-1.706,0.373-2.451         c0.44-3.042,1.426-5.559,2.5-9.285c0.431-1.852,0.88-3.993,1.29-6.634c0.433-2.594,0.693-6.008,1.241-9.051         c-0.169,0.556-0.148,0.96-0.161,1.316c-0.009,0.362-0.017,0.723-0.103,1.39c0.136-0.623,0.244-1.242,0.331-1.863         c0.098-0.606,0.269-1.084,0.364-1.645l0.04-0.204c0.01-0.063-0.07,0.053-0.1,0.07c-0.166,0.227,0.021-0.179,0.112-0.411         c0.186-0.522,0.456-0.99,0.613-1.524c0.042-0.146,0.094-0.229,0.129-0.426l0.086-0.447l0.094-0.527         c0.063-0.354,0.125-0.708,0.189-1.065c0.531-2.831,1.025-5.958,2.327-9.008c-0.021-0.997,0.093-1.97,0.317-3.035         c0.25-1.14,0.573-2.239,0.83-3.272c0.22-1.053,0.431-2.032,0.459-2.801c-0.023-0.739-0.154-1.315-0.478-1.652         c0,0-0.021,0.224-0.056,0.615c-0.053,0.399-0.042,0.932-0.211,1.651c-0.143,0.703-0.292,1.536-0.491,2.406         c-0.222,0.857-0.459,1.771-0.696,2.686c-0.409,1.66-0.817,3.32-1.124,4.566c-0.151,0.615-0.278,1.128-0.366,1.487         c-0.073,0.371-0.115,0.583-0.115,0.583c0.364-1.909,0.726-3.75,1.039-5.717c0.073-0.473,0.173-1.01,0.277-1.56         c0.1-0.541,0.201-1.088,0.304-1.643c0.224-1.093,0.325-2.277,0.506-3.451c0.104-2.293,0.188-4.779,0.505-7.417         c0.179-1.298,0.391-2.658,0.645-4.084c0.302-1.441,0.649-2.951,1.05-4.538c0.108,1.05-0.283,4.977-0.421,7.53         c0.249-0.901,0.424-1.79,0.562-2.679c0.165-0.907,0.304-1.822,0.439-2.737c0.281-1.833,0.533-3.682,1.145-5.582         c0.278,0.354,0.259,1.572,0.045,3.332c-0.106,0.88-0.26,1.896-0.445,3.009c-0.189,1.116-0.405,2.327-0.569,3.529         c-0.091,0.609-0.185,1.232-0.28,1.864c-0.092,0.639-0.203,1.243-0.267,1.973c-0.138,1.407-0.278,2.83-0.415,4.223         c-0.076,0.707-0.089,1.369-0.202,2.088c-0.127,0.734-0.252,1.455-0.374,2.156c-0.258,1.388-0.544,2.654-0.735,3.848         c0.231-0.526,0.466-1.201,0.699-1.965c0.24-0.757,0.464-1.619,0.632-2.558c0.086-0.463,0.174-0.934,0.263-1.407         c0.095-0.48,0.082-0.881,0.125-1.322c0.058-0.86,0.114-1.701,0.166-2.473c0.107-1.537,0.203-2.827,0.356-3.393         c0.166-0.524,0.33-0.508,0.583,0.599c-0.289-1.546-0.25-3.119-0.078-4.896c0.233-1.813,0.656-3.776,1.103-5.848         c0.416-2.066,1.027-4.296,1.494-6.642c0.479-2.349,0.873-4.829,1.058-7.446l0.699,0.848c0.219-1.635,0.548-5.049,1.216-8.003         l-0.076,5.587c0.864-8.419,4.285-15.677,5.501-23.67c-3.586,16.516-1.828,3.49-3.973,10.34         c3.326-20.61,4.772-11.242,9.354-34.125c-0.556,3.112-3.042,11.478-2.377,6.566c0.562-2.151,1.237-4.643,1.9-6.917         c0.658-2.281,1.31-4.34,1.876-5.542c3.519-14.596-1.43,2.028-0.37-4.307c0.571-1.183,0.943-2.226,1.202-3.232         c0.281-0.999,0.494-1.946,0.653-2.962c0.342-2.027,0.525-4.292,1.396-7.537l0.845,0.246c6.401-16.43-0.17-5.013,5.756-19.748         l-1.084,6.728l2.466-7.925c-0.016,0.043,0.089,0.498,0.179,0.993c0.093,0.485,0.187,0.971,0.187,0.971         c0.146-0.545,0.284-1.067,0.418-1.568c0.042-0.152,0.122-0.381,0.169-0.584c0.04-0.192,0.08-0.383,0.119-0.571         c0.042-0.233,0.084-0.461,0.125-0.685c0.156-0.893,0.338-1.73,0.522-2.522c0.349-1.581,0.751-2.965,1.157-4.333         c0.438-1.355,0.881-2.714,1.458-4.186c0.281-0.742,0.578-1.529,0.931-2.331c0.342-0.82,0.712-1.702,1.142-2.535         c-0.645,0.689-0.917,0.324-0.655-1.074c0.032-0.192,0.073-0.346,0.121-0.492c0.051-0.158,0.106-0.329,0.165-0.513         c0.032-0.093,0.065-0.189,0.099-0.289c0.025-0.093,0.074-0.206,0.162-0.351c0.155-0.267,0.319-0.55,0.493-0.85         c0.698-1.176,1.606-2.606,2.692-4.138c1.14-1.123,0.982-0.526,1.068-0.441c0.04,0.06,0.111,0.018,0.399-0.297         c0.074-0.077,0.151-0.181,0.276-0.275c0.113-0.116,0.323-0.068,0.526-0.077c0.21,0.007,0.451,0.017,0.726,0.026         c0.342,0.019,0.725,0.039,1.156,0.062c-0.374,0.042-0.511,0.103-0.681,0.161c-0.178,0.057-0.323,0.117-0.465,0.173         c-0.287,0.119-0.557,0.194-0.844,0.301c-0.238,0.243-0.389,0.572-0.657,0.834c-0.064,0.07-0.132,0.14-0.208,0.21         l-0.117,0.107c-0.03,0.019-0.096,0.091-0.195,0.205c-0.353,0.399-0.737,0.8-1.163,1.233         c-0.045,0.562-0.952,2.322-1.018,2.909c0.951-1.095,1.94-2.378,2.917-3.674c0.17-0.213,0.344-0.431,0.518-0.649         c0.078-0.091,0.147-0.193,0.239-0.274c0.088-0.09,0.229-0.049,0.341-0.063c0.257,0.001,0.51,0.001,0.755,0.002         c0.729,0.035,1.433,0.068,2.098,0.1c1.494,0.075,2.811,0.14,3.831,0.191c-1.592-0.125-3.449-0.311-4.381-0.505         c0,0,1.016-0.003,2.539-0.009c1.543-0.014,3.583-0.023,5.779-0.15c2.021-0.17,4.042-0.341,5.558-0.468         c0.714-0.064,1.315-0.115,1.76-0.132c0.436-0.023,0.685-0.037,0.685-0.037c2.503,0.387,0.5,0.602-1.456,0.825         c3.211-0.017,5.443-0.411,10.202-0.32c-1.248,0.681-0.998,1.389-7.682,1.585c0,0,0.945-0.029,2.362-0.072         c1.416-0.048,3.31-0.099,5.215-0.126c3.81-0.083,7.594-0.117,7.595-0.118c0.961,0.353,7.799,1.179,5.795,1.359         c4.253,0.386,9.498,0.257,15.079,0.159c5.565-0.18,11.466-0.373,17.087,0.038c0.587-0.125,1.763-0.23,4.158-0.277         c2.643,0.101,5.209,0.245,7.769,0.393c2.557,0.156,5.108,0.312,7.763,0.333c5.286,0.093,10.836,0.055,17.149-0.476         l7.148,0.973c9.798-0.711-9.672-1.198,6.639-2.381c11.544-0.906,4.354,0.904,8.424,1.086         c5.729-0.892,15.665-2.633,26.329-2.048C307.829,103.6,305.063,103.529,301.782,103.766z M377.903,157.021         c-0.835-2.185-2.69-6.474-2.675-8.254C376.94,151.019,377.061,153.132,377.903,157.021z M418.766,336.003         c-0.381-0.806-0.703-1.878-1.003-3.127c-0.305-1.245-0.565-2.676-0.751-4.219         C417.578,330.828,418.251,333.239,418.766,336.003z M139.718,410.658c0.102,0,0.174,0,0.258-0.007         C145.189,411.735,143.342,411.338,139.718,410.658z M128.958,408.514c-1.097-0.089-1.046,0.045-0.614,0.254         c0.796-0.095,3.167,0.431,5.933,0.927C133.528,409.387,132.187,408.94,128.958,408.514z M97.405,276.444         c0,0,0.128-0.573,0.257-1.146c0.064-0.286,0.19-0.604,0.258-0.827c0.076-0.227,0.127-0.377,0.127-0.377         c-0.067,0.351-0.129,0.674-0.186,0.97c-0.049,0.292-0.051,0.535-0.077,0.769c-0.042,0.459-0.076,0.826-0.102,1.115         c-0.059,0.575-0.102,0.836-0.137,0.886C97.476,277.935,97.441,277.193,97.405,276.444z" style="fill:#202020;"/><path d="M412.738,315.868c0.003-0.68,0.124-0.894,0.252-1.08         C412.649,313.918,412.479,313.936,412.738,315.868z" style="fill:#202020;"/><path d="M226.321,105.625l-0.367-0.019c-0.204,0.048-0.313,0.099-0.376,0.15L226.321,105.625z" style="fill:#202020;"/><path d="M236.755,332.183c0.937-2.033,1.543-3.135,2.001-3.845         C238.601,328.146,238.06,329.025,236.755,332.183z" style="fill:#202020;"/><path d="M72.783,387.286c0,0,0.034,0.595,0.084,1.488c0.088,1.144,0.206,2.661,0.628,4.052         c0.139,0.332,0.278,0.663,0.414,0.988c0.157,0.118,0.185,0.308,0.291,0.449c0.095,0.146,0.189,0.292,0.281,0.435         c0.435,0.523,0.877,0.978,1.308,1.323c0.851,0.701,1.5,1.081,1.5,1.082c-1.211-0.786-2.09-1.589-2.698-2.396         c-0.556-0.855-0.906-1.634-1.027-2.409c-0.072-0.383-0.133-0.747-0.18-1.099c-0.015-0.363-0.03-0.713-0.045-1.058         c-0.04-0.683-0.03-1.358-0.02-2.082c-0.097,0.133-0.196,0.779-0.292,0.932c-0.048,0.075-0.095,0.022-0.141-0.29         c-0.023-0.156-0.046-0.378-0.068-0.681C72.804,387.824,72.786,387.584,72.783,387.286z" style="fill:#202020;"/><path d="M82.167,362.651c-0.083-0.117,0.035-0.2-0.049-0.317l-0.403-0.065         C81.646,362.673,81.9,363.023,82.167,362.651z" style="fill:#202020;"/><path d="M76.199,380.482c0.82-0.457,1.252-4.842,1.887-9.744c-0.043,0.292-0.081,0.571-0.136,0.861         C77.163,369.959,76.673,375.255,76.199,380.482z" style="fill:#202020;"/><path d="M78.258,369.608c0.164-0.737,0.329-1.482,0.493-2.224c0.088-0.37,0.176-0.738,0.263-1.104         l0.129-0.514l0.023-0.049c-0.098-0.035-0.155-0.044-0.185-0.032c-0.015,0.006-0.022,0.018-0.025,0.032         c-0.025,0.127-0.055,0.279-0.089,0.451C78.708,367.022,78.519,368.287,78.258,369.608z" style="fill:#202020;"/><path d="M115.31,406.349c-2.238-0.631-1.612,0.647-2.842,0.101         C109.747,406.876,127.858,408.295,115.31,406.349z" style="fill:#202020;"/><polygon points="79.223,376.909 78.05,378.5 78.354,381.306        " style="fill:#202020;"/><path d="M100.65,399.635c0,0-1.887-0.485-3.774-0.971c-0.943-0.243-1.887-0.485-2.594-0.667         c-0.707-0.19-1.178-0.317-1.178-0.317c0.08,0.176-0.905,0.032-2.109-0.186C95.677,398.665,100.772,399.916,100.65,399.635z" style="fill:#202020;"/><path d="M90.996,397.494c-1.219-0.302-2.41-0.587-3.472-0.819c-1.062-0.244-1.986-0.376-2.716-0.577         c0.69,0.266,1.728,0.455,2.856,0.715C88.792,397.06,90.003,397.313,90.996,397.494z" style="fill:#202020;"/><path d="M78.411,387.461c0,0-0.031,0.565-0.061,1.131c-0.012,0.574-0.024,1.148-0.024,1.148         s0.034,0.339,0.084,0.848c0.057,0.246,0.071,0.558,0.212,0.844c0.153,0.28,0.402,0.521,0.66,0.741         c1.049,0.871,2.277,1.499,2.277,1.499s-0.426-0.237-1.029-0.635c-0.573-0.414-1.455-0.911-1.895-1.773         c-0.233-0.938-0.191-1.909-0.227-2.613C78.41,387.937,78.411,387.461,78.411,387.461z" style="fill:#202020;"/><path d="M183.41,411.794c0,0,0.53,0.03,1.326,0.074c0.797,0.031,1.853,0.136,2.92,0.132         c2.129,0.033,4.258,0.066,4.258,0.066c0.882-0.272-1.419-0.57-4.587-0.593C185.284,411.551,182.135,411.372,183.41,411.794z" style="fill:#202020;"/><path d="M158.05,407.081c2.266,0.388,2.401,0.604,3.66,1.015l0.363-1.104L158.05,407.081z" style="fill:#202020;"/><path d="M182.706,408.962c0.432-0.134,3.517-0.046,5.145-0.145c0.813-0.052,1.266-0.107,0.849-0.176         c-0.416-0.064-1.7-0.132-4.378-0.372C183.444,408.506,174.964,408.029,182.706,408.962z" style="fill:#202020;"/><polygon points="244.453,321.097 243.675,323.11 245.515,323.499        " style="fill:#202020;"/><path d="M287.258,381.241c-1.378-9.838-1.564-2.097-2.646-11.031c-0.864-2.22,0.887,7.307,0.081,5.021         C286.25,381.053,286.569,384.196,287.258,381.241z" style="fill:#202020;"/><path d="M284.692,375.23c-0.249-0.934-0.523-1.921-0.841-2.967         C284.285,373.957,284.523,374.746,284.692,375.23z" style="fill:#202020;"/><polygon points="85.593,336.372 85.051,336.701 85.747,336.628        " style="fill:#202020;"/><path d="M86.534,337.702c0,0-0.27-0.119-0.541-0.238c-0.267-0.125-0.533-0.25-0.533-0.25         s0.228,0.147,0.449,0.312c0.055,0.042,0.11,0.083,0.162,0.122l0.038,0.029l0.174,0.109c0.133,0.085,0.26,0.165,0.376,0.238         c0.461,0.302,0.769,0.502,0.769,0.502c-0.232-0.151-0.491-0.32-0.769-0.502l-0.214-0.136l-0.109-0.069         c-0.006-0.005-0.002-0.004-0.004-0.007l-0.003-0.019c-0.003-0.026-0.004-0.052,0.005-0.071         C86.351,337.684,86.404,337.665,86.534,337.702z" style="fill:#202020;"/><path d="M380.431,174.849l0.4,0.402c0.043-1.042-0.319-2.504-1.042-5.435L380.431,174.849z" style="fill:#202020;"/><path d="M352.577,102.636l1.393,0.063c0,0-0.646-0.286-1.291-0.571         c-0.66-0.274-1.321-0.547-1.321-0.547s0.308,0.262,0.615,0.524C352.275,102.37,352.577,102.636,352.577,102.636z" style="fill:#202020;"/><path d="M279.336,107.023c3.01-0.085,6.537-0.475,9.562-0.56         C282.346,106.938,278.473,105.727,279.336,107.023z" style="fill:#202020;"/></g></g></g></g></g></g></g><g id="Layer_1"/></svg>